<?xml version="1.0" encoding="UTF-8"?>
<svg width="512" height="512" viewBox="0 0 512 512" fill="none" xmlns="http://www.w3.org/2000/svg">
    <path d="M502.754 233.362L278.638 9.24595C265.783 -3.60905 244.717 -3.60905 231.862 9.24595L185.489 55.6189L243.217 113.346C256.972 109.446 272.227 112.446 282.983 123.202C293.838 134.057 296.789 149.613 292.589 163.418L348.317 219.146C362.122 214.946 377.678 217.897 388.533 228.752C404.188 244.407 404.188 269.892 388.533 285.547C372.878 301.202 347.393 301.202 331.738 285.547C320.333 274.142 317.532 257.387 322.632 242.932L271.083 191.383V322.154C275.033 324.104 278.733 326.754 281.983 330.004C297.638 345.659 297.638 371.144 281.983 386.799C266.328 402.454 240.843 402.454 225.188 386.799C209.533 371.144 209.533 345.659 225.188 330.004C229.188 326.004 233.838 322.904 238.738 320.854V189.033C233.838 186.983 229.188 183.933 225.188 179.883C213.633 168.328 210.932 151.373 216.232 136.818L159.204 79.7899L9.24595 229.748C-3.60905 242.603 -3.60905 263.669 9.24595 276.524L233.362 500.64C246.217 513.495 267.283 513.495 280.138 500.64L500.64 280.138C513.495 267.283 513.495 246.217 500.64 233.362H502.754Z" fill="#F03C2E"/>
</svg>
