<?xml version="1.0" encoding="UTF-8"?>
<svg xmlns="http://www.w3.org/2000/svg" viewBox="0 0 512 512">
    <path fill="#E34F26" d="M71.357 460.819L30.272 0h451.456l-41.129 460.746L255.724 512z"/>
    <path fill="#EF652A" d="M256 472.875l147.925-41.122 34.794-390.176H256z"/>
    <path fill="#EBEBEB" d="M256 208.125h-73.822l-5.09-57.125H256v-55.666H121.631l1.334 14.963 13.699 153.828H256zM256 355.938l-.248.066-62.944-16.996-4.023-45.076h-56.736l7.919 88.741 115.772 32.14.26-.073z"/>
    <path fill="#FFF" d="M255.843 208.125v57.128h70.425l-6.647 74.419-63.778 17.21v59.45l117.372-32.529.859-9.655 13.448-150.753 1.392-15.27h-133.071zM255.843 95.334v55.666h138.282l1.148-12.87 2.611-29.294 1.334-13.502z"/>
</svg>
