<?xml version="1.0" encoding="UTF-8"?>
<svg xmlns="http://www.w3.org/2000/svg" viewBox="0 0 448 512">
    <path fill="#F7DF1E" d="M0 0h448v512H0V0z"/>
    <path d="M400 432H48V80h352v352zm-152.9-63.9c12.3 38.9-28.3 0-19.7-15.6-26.6-41.7-38.1l-14.3-6.1c-41.3-17.6-68.8-39.7-68.8-86.4 0-43 32.8-75.7 84-75.7 36.5 0 62.7 12.7 81.6 46.1l-44.7 28.7c-9.8-17.6-20.4-24.5-37-24.5-16.8 0-27.5 10.7-27.5 24.5 0 17.1 10.7 24.1 35.2 34.8l14.3 6.1c48.7 20.9 76.2 42.3 76.2 90.2 0 51.6-40.6 79.9-95.1 79.9-53.3 0-87.7-25.4-104.5-58.6l46.8-27.2zM176 480V394.5c-10.6 19.3-30.7 34.5-61.5 34.5-45.8 0-76.3-35.2-76.3-97.8V208h47.5v120.3c0 31.5 14.1 .6 35.9 48.6 23.3 0 37.1-16.1 37.1-46.8V208H206v272h-30z"/>
</svg>
