<?xml version="1.0" encoding="UTF-8"?>
<svg xmlns="http://www.w3.org/2000/svg" viewBox="0 0 128 128">
    <path fill="#777BB4" d="M64 33.039C30.26 33.039 2.906 46.901 2.906 64S30.26 94.961 64 94.961 125.094 81.099 125.094 64 97.74 33.039 64 33.039zM48.103 70.032c-1.458 1.364-3.077 1.927-4.86 2.507-1.783.581-4.052.461-6.811.461h-6.253l-1.733 10h-7.301l6.515-34h14.04c4.224 0 7.305 1.215 9.242 3.432 1.937 2.217 2.519 5.364 1.747 9.337-.319 1.637-.856 3.159-1.614 4.515a15.118 15.118 0 01-2.972 3.748zM69.414 73l4.996-26h7.301L76.715 73h-7.301zm35.247-3.001c-1.46 1.364-3.079 1.927-4.86 2.507-1.785.581-4.054.461-6.814.461h-6.253l-1.732 10h-7.301l6.514-34h14.041c4.224 0 7.305 1.215 9.241 3.432 1.937 2.217 2.519 5.364 1.748 9.337-.319 1.637-.856 3.159-1.615 4.515a15.214 15.214 0 01-2.969 3.748z"/>
    <path fill="#777BB4" d="M46.632 54h-8.264l-2.729 14h7.578c2.398 0 4.336-.257 5.814-.772 1.478-.516 2.722-1.797 3.729-3.843 1.007-2.047 1.396-4.013 1.166-5.899-.231-1.886-1.04-2.986-2.424-3.299-1.385-.314-2.897-.187-4.87-.187zm37.239 0h-8.264l-2.729 14h7.578c2.398 0 4.336-.257 5.814-.772 1.478-.516 2.722-1.797 3.729-3.843 1.007-2.047 1.396-4.013 1.166-5.899-.231-1.886-1.04-2.986-2.424-3.299-1.385-.314-2.897-.187-4.87-.187z"/>
</svg>
