<svg xmlns="http://www.w3.org/2000/svg" viewBox="0 0 128 128">
  <path fill="#68217A" d="M117.5 33.5l.3-.2c-.6-1.1-1.5-2.1-2.4-2.6L67.1 2.9c-.8-.5-1.9-.7-3.1-.7-1.2 0-2.3.3-3.1.7l-48 27.9c-1.7 1-2.9 3.5-2.9 5.4v55.7c0 1.1.2 2.3.9 3.4l-.2.1c.5.8 1.2 1.5 1.9 1.9l48.2 27.9c.8.5 1.9.7 3.1.7 1.2 0 2.3-.3 3.1-.7l48-27.9c1.7-1 2.9-3.5 2.9-5.4V36.1c.1-.8 0-1.7-.4-2.6zM82 91.8L64.9 42.3h-3.6l-17.1 49.5h3.9l4.8-14.6h20.4l4.8 14.6H82zm-28.2-17.9l8.8-25.8 8.8 25.8H53.8z"/>
  <path fill="#68217A" d="M102.7 61.9v-3.7h3.7v3.7h3.7v-3.7h3.7v3.7h1.9v-7.4h-16.7v7.4z"/>
  <path fill="#68217A" d="M102.7 66.7v3.7h3.7v-3.7h3.7v3.7h3.7v-3.7h1.9v7.4h-16.7v-7.4z"/>
</svg>
