<?xml version="1.0" encoding="UTF-8"?>
<svg xmlns="http://www.w3.org/2000/svg" viewBox="0 0 512 512" fill="#3178C6">
  <path d="M480 0H32C14.3 0 0 14.3 0 32v448c0 17.7 14.3 32 32 32h448c17.7 0 32-14.3 32-32V32c0-17.7-14.3-32-32-32zM320 392c0 12.4-10.1 22.5-22.5 22.5H214c-12.4 0-22.5-10.1-22.5-22.5v-43.5c0-12.4 10.1-22.5 22.5-22.5h83.5c12.4 0 22.5 10.1 22.5 22.5V392zm157.5-273H34.5C22.1 119 12 108.9 12 96.5v-23C12 61.1 22.1 51 34.5 51h443c12.4 0 22.5 10.1 22.5 22.5v23c0 12.4-10.1 22.5-22.5 22.5z"/>
</svg>
