<?xml version="1.0" encoding="UTF-8"?>
<svg width="512" height="512" viewBox="0 0 512 512" fill="none" xmlns="http://www.w3.org/2000/svg">
    <path d="M496.131 228.485C487.778 222.013 469.316 218.283 448.098 218.283C441.626 218.283 434.782 218.655 427.938 219.4C424.208 192.054 409.876 171.951 381.043 154.603L371.575 148.875L365.475 158.333C357.122 171.206 352.277 186.326 351.16 201.818C350.415 210.543 351.16 219.028 353.764 227.013C358.237 241.391 367.1 252.718 378.811 260.326C366.22 266.798 347.804 270.156 330.084 270.156H17.1016L16.7296 271.628C14.4976 280.725 13.3806 290.193 13.3806 299.661C13.3806 336.648 28.8286 369.504 56.1756 392.21C87.5446 418.441 131.647 432.075 183.481 432.075C318.745 432.075 409.876 370.621 451.084 264.955C464.843 265.7 479.175 264.583 491.657 260.698C512.131 254.226 522.716 241.391 524.576 227.385L525.693 221.285L520.103 217.183C513.248 211.288 505.366 229.23 496.131 228.485Z" fill="#2496ED"/>
    <path d="M110.429 225.881H83.0825V198.534H110.429V225.881ZM110.429 168.965H83.0825V141.618H110.429V168.965ZM78.2375 225.881H50.8905V198.534H78.2375V225.881ZM145.281 225.881H117.934V198.534H145.281V225.881ZM78.2375 168.965H50.8905V141.618H78.2375V168.965ZM212.314 225.881H184.967V198.534H212.314V225.881ZM145.281 168.965H117.934V141.618H145.281V168.965ZM279.347 225.881H252V198.534H279.347V225.881ZM212.314 168.965H184.967V141.618H212.314V168.965ZM145.281 112.049H117.934V84.7021H145.281V112.049ZM78.2375 112.049H50.8905V84.7021H78.2375V112.049Z" fill="#2496ED"/>
</svg>
